<?xml version="1.0" encoding="UTF-8"?>
<!DOCTYPE svg PUBLIC "-//W3C//DTD SVG 1.1//EN" "http://www.w3.org/Graphics/SVG/1.1/DTD/svg11.dtd">
<!-- Creator: CorelDRAW -->
<svg xmlns="http://www.w3.org/2000/svg" xml:space="preserve" width="204.321mm" height="274.312mm" version="1.1" style="shape-rendering:geometricPrecision; text-rendering:geometricPrecision; image-rendering:optimizeQuality; fill-rule:evenodd; clip-rule:evenodd"
viewBox="0 0 20417.83 27412.08"
 xmlns:xlink="http://www.w3.org/1999/xlink"
 xmlns:xodm="http://www.corel.com/coreldraw/odm/2003">
 <defs>
  <style type="text/css">
   <![CDATA[
    .fil7 {fill:#898989}
    .fil6 {fill:#2B2A29}
    .fil1 {fill:#009BEA}
    .fil0 {fill:#323941}
    .fil5 {fill:#323941}
    .fil3 {fill:#377D19}
    .fil2 {fill:#FFA211}
    .fil8 {fill:#2B2A29;fill-rule:nonzero}
    .fil4 {fill:#323941;fill-rule:nonzero}
   ]]>
  </style>
 </defs>
 <g id="Слой_x0020_1">
  <metadata id="CorelCorpID_0Corel-Layer"/>
  <path class="fil0" d="M6658 3994.79c-137.9,-32.13 -586.68,-332.48 -792.63,-380.45 -175.74,117.68 -226.84,211.52 -388.37,372.54l-584.89 556.47c-48.72,43.56 -50.67,56.23 -92.11,98.13 -33.11,33.49 -63.33,56.78 -99.55,90.68l-1894.46 1878.4c-40.65,49.03 -23.35,11.93 -47.68,79.13l1045.48 -254.41 1371.75 -1228.02c116.71,-102.77 220.58,-220.09 333.15,-332.66 98.41,-98.41 221.09,-272.92 356.67,-309.12 20.56,246.93 299.64,805.35 317.05,1014.55 152.46,-40.71 271.67,-281.58 422.03,-465.72 605.63,-741.65 1386.55,-1824.31 1965.51,-2504.85 136.07,-159.95 720.97,-929.79 814.64,-992.52 0,408.26 -380.45,2383.61 -380.45,2726.61 215.14,-144.07 778.14,-651.32 951.15,-697.51l710.2 1128.66c130.18,195.24 233.39,366.06 361.43,558.01 86.82,130.15 282.9,463.11 386.77,532.66 177.2,-118.66 323.85,-310.56 475.58,-412.15 209.89,56.04 2091.56,1724.41 2282.74,1775.45l153 -132.69 -318.46 -336.04c56.41,-80.73 91.14,-101.68 152.07,-178.75l425.54 -525.6c-70.44,-105.2 -170.69,-161.26 -285.34,-221.93 93.47,-139.6 311.67,-348.12 348.75,-507.28 -106.11,-158.46 -480.95,-498.39 -642.16,-657.73l-1084.18 -1166.85c-4.22,-5.05 -10.21,-12.24 -14.44,-17.27l-659.36 -672.25c-78.73,-95.04 -62.01,-109.87 -167.93,-180.8l-595.09 578.01c-123.3,-92.32 -394.74,-501.45 -510.19,-645.79l-1494.5 -1961.32 -1753.25 2114.73c-69.36,81.88 -107.01,118.36 -176.3,204.17 -59.28,73.4 -123.78,151.35 -187.61,224.55l-704.56 848.96z"/>
  <path class="fil1" d="M-0 8148.12c166.64,-38.83 323.47,-102.4 475.58,-158.52 2009.61,-741.53 4753.41,-794.33 6845.58,-377.84 365.38,72.74 705.94,162.14 1067.23,264.39 1132.8,320.56 1852.45,615.52 3138.71,856.07 1414.36,264.51 3845.19,381.78 5214.62,-43.5 86.84,-26.98 65.69,-13.32 125.19,-65.04 -4158.33,0 -7085.1,-2155.91 -10462.55,-2155.91 -1262.79,0 -1989.04,19.44 -3221.38,329.54 -132.62,33.37 -226.75,53.93 -354.95,88.91 -711.83,194.17 -1655.4,524.51 -2275.66,894.81 -142.28,84.94 -480.21,259.35 -552.35,367.09z"/>
  <path class="fil2" d="M2980.25 4089.91c0,412 124.23,746.89 295.62,1067.68 62.75,117.44 119.65,181.67 179.93,295.63 229.95,-61.41 551.23,-495.6 753.23,-673.49l1592.92 -1545.84c248.91,131.7 501.5,259.68 729.21,412.15 112.7,-168.29 623.99,-699.49 665.8,-856.02 -365.2,-545.36 -1161.45,-982.84 -1933.98,-982.84 -787.61,0 -1421.52,397.67 -1866.73,986.7 -236.73,313.21 -416.01,846.16 -416.01,1296.04z"/>
  <path class="fil3" d="M16803.49 7875.97c110.3,40.47 164.51,25.56 285.34,0.78 101.99,-266.37 0,-682.18 0,-965.13 170.69,3.82 429.36,111.83 792.38,127.06 694.19,29.15 503.48,106.04 163.02,-321.53 -136.3,-171.16 -634.45,-726.51 -701.75,-978.6 136.31,31.75 320.05,91.65 475.57,95.11 -29.23,-125.48 -200.15,-291.32 -355,-532.73 -77.97,-121.54 -299.82,-445.11 -310.79,-576.94 66.71,32.01 276.25,63.41 380.45,63.41l-203.22 -335.76c-112.86,-170.33 -509.09,-951.35 -525.99,-1154.36 -112.58,82.48 -296.05,653.45 -411.68,888.2 -70.32,142.76 -134.7,271.55 -211.37,422.74 -69.86,137.76 -202.15,300.53 -232.97,432.83 120.02,-27.97 325.64,-85.28 443.86,-95.12 -69.25,297.27 -233,377.19 -160.99,537.69 68.38,152.44 275.97,282.06 319.52,445.15 -129.93,10.81 -172.59,31.71 -348.75,31.71 12.69,152.54 218.2,411.11 316.41,539.61 47.63,62.34 121.23,120.12 152.28,165.17 75.69,109.81 -24.83,912.2 -24.83,1102.38 79.23,53.05 56.37,60.12 158.52,108.31z"/>
  <path class="fil3" d="M15231.52 7894.47c167.48,69.21 339.26,20.01 379.34,0 7.16,-143.81 19.57,-342.1 19.57,-538.98 133.85,31.19 294.75,44.56 442.45,64.82 164.61,22.59 256.14,62 445.28,62 -226.2,-337.79 -309.98,-359.86 -538.98,-792.62 166.13,38.7 313.35,122.49 507.29,126.82l-357.7 -530.04c-82.12,-108.8 -103.11,-149.12 -171.49,-272.37 -55.09,-99.28 -140.91,-204.62 -168.31,-307.26 89.58,42.98 258.75,84.98 380.45,95.11 -31.67,-59.83 -54.34,-130.15 -89.98,-195.35 -245.99,-450.18 -558.83,-1035.52 -670.94,-1516.7 -81.87,59.99 -333.97,758.17 -375.89,860.6 -65.73,160.67 -127.71,273.53 -205.37,428.72 -69.16,138.24 -135.38,309.27 -211.35,422.74 159.76,-13.29 153.24,-63.41 348.75,-63.41 -73.1,313.76 -594.04,832.82 -634.1,982.84 213.14,-4.76 315.73,-89.59 475.57,-126.82 -63.56,238.03 -487.28,701.91 -602.38,919.44 166.63,0 319.98,-49.94 492.61,-78.08 117.7,-19.19 452.14,-48.75 553.64,-48.75 0,165.46 8.17,396.14 -18.45,507.28z"/>
  <path class="fil1" d="M17088.83 7876.75c-120.84,24.78 -175.04,39.69 -285.34,-0.78 -152.05,56.32 -1041.3,111.58 -1192.64,18.51 -40.07,20.01 -211.85,69.21 -379.34,0 -969.47,0 -2101.84,-193.49 -3053.98,-383.39 -65.38,-13.04 -131.7,-22.81 -210.6,-43.03 -95.4,-24.44 -103.44,-40.73 -204.49,-49.15l994.22 369.08c374.8,111.28 712.22,203.04 1098.64,296.37 2213.41,534.59 4504.24,633.74 6394.39,-865.3 146.11,-115.87 142.55,-84.82 168.13,-180.61 -95.84,22.32 -257.72,102.36 -359.34,147.93 -492.64,220.91 -1512.64,511.19 -2048.28,583.21 -206.94,27.82 -788.01,124.14 -921.38,107.16z"/>
  <path class="fil1" d="M3867.97 7640.83l42.25 21.16c61.05,23.85 -18.67,-1.48 45.39,18.03 51.05,15.55 38.18,12.93 106.47,20.35l670.21 90.71c281.09,54.46 583.69,101.73 848.13,166.42 1400.19,342.64 2704.62,840.37 4151.99,920.76 310.17,17.23 608.69,62.48 952.08,62.48l-1420.18 -355.28c-450.62,-122.8 -934.35,-261.97 -1373.58,-401.88 -1337.1,-425.9 -2567,-695.05 -4022.75,-542.73z"/>
  <path class="fil2" d="M4438.66 1712.06c165.34,-13.76 275.86,-73.54 465.45,-105.24 141.68,-23.68 388.03,-21.58 580.8,-21.58l-281.33 -796.61c-45.81,-127.43 -221.23,-715.48 -321.06,-788.62l-443.86 1712.06z"/>
  <path class="fil2" d="M3297.29 2441.27c93.43,-24.95 41.07,-13.02 96.01,-62.52 187.87,-169.23 507.29,-472.39 760.01,-539.87 -41.86,-57.14 -225.13,-180.01 -304.31,-234.67l-651.66 -458.01c-62.2,-46.16 -97.5,-71.05 -166.01,-119.33 -91.56,-64.51 -79.39,-81.13 -177.92,-107.44 3.33,149.13 365.77,1359.06 443.87,1521.83z"/>
  <path class="fil2" d="M1204.78 4850.83l823.33 64.41c184.98,5.09 717.12,10.49 825.31,62.41 -11.62,-139.72 -78.99,-288.17 -109.31,-461.36 -29.68,-169.47 -49.2,-341.49 -49.2,-521.49 -145.97,34.01 -259.67,124.79 -380.46,190.24 -146.56,79.38 -1053.26,588.81 -1109.67,665.8z"/>
  <path class="fil2" d="M1458.42 2726.61c68.91,102.91 482.45,343.73 633.76,444.2l666.14 411.82c7.46,-335.16 313.75,-737.53 348.75,-887.73 -274.77,0 -549.55,0.03 -824.33,0 -319.49,-0.03 -531.28,31.71 -824.32,31.71z"/>
  <path class="fil2" d="M5960.49 1648.64l792.61 317.05c0,-450.87 63.42,-801.53 63.42,-1236.48 -61.18,44.82 -136.91,157.39 -213.69,230.17l-222.08 221.8c-150.6,157.28 -317.9,274.01 -420.26,467.46z"/>
  <path class="fil4" d="M5186.84 11494.17c292.09,0 440.63,-176.92 505.72,-325.46l-290.41 -133.53c-28.38,86.8 -115.17,161.91 -215.31,161.91 -161.9,0 -270.38,-123.51 -270.38,-278.74 0,-155.22 108.48,-278.74 270.38,-278.74 100.14,0 186.93,75.11 215.31,161.91l290.41 -135.2c-66.75,-153.55 -213.63,-323.79 -505.72,-323.79 -348.83,0 -612.54,232 -612.54,575.82 0,342.15 263.72,575.82 612.54,575.82zm1684.08 -20.03l0 -1113.25 -337.15 0 0 393.9 -398.9 0 0 -393.9 -337.14 0 0 1113.25 337.14 0 0 -425.6 398.9 0 0 425.6 337.15 0zm517.4 0l0 -1113.25 -337.14 0 0 1113.25 337.14 0zm1502.15 0l0 -1113.25 -465.67 0 -195.28 534.1 -195.27 -534.1 -465.67 0 0 1113.25 337.14 0 0 -669.28 248.7 669.28 150.21 0 248.7 -669.28 0 669.28 337.14 0zm732.71 20.03c218.65,0 385.55,-88.46 509.05,-225.32l0 -455.64 -542.43 0 0 293.75 206.96 0 0 40.06c-35.05,26.7 -110.15,50.08 -173.58,50.08 -161.9,0 -270.38,-123.51 -270.38,-278.74 0,-155.22 108.48,-278.74 270.38,-278.74 100.14,0 173.58,70.1 205.3,138.53l283.73 -145.21c-70.1,-143.53 -223.65,-290.41 -489.03,-290.41 -337.14,0 -612.54,218.65 -612.54,575.82 0,355.5 275.4,575.82 612.54,575.82zm1767.52 -20.03l-410.58 -1113.25 -423.93 0 -410.58 1113.25 382.2 0 40.06 -130.19 400.57 0 40.05 130.19 382.21 0zm-512.39 -423.93l-220.32 0 110.15 -358.85 110.16 358.85zm1644.01 423.93l0 -1113.25 -337.15 0 0 527.42 -387.21 -527.42 -347.17 0 0 1113.25 337.14 0 0 -564.14 410.59 564.14 323.79 0zm612.54 20.03c298.75,0 480.68,-141.87 480.68,-387.22 0,-413.92 -619.22,-323.79 -619.22,-428.94 0,-28.37 18.36,-50.08 85.12,-50.08 105.15,0 230.33,36.72 327.13,110.16l180.25 -238.67c-126.84,-103.49 -290.41,-155.22 -472.34,-155.22 -305.44,0 -462.32,180.25 -462.32,368.85 0,438.96 620.88,330.48 620.88,437.3 0,43.39 -60.08,60.09 -123.5,60.09 -150.22,0 -275.4,-63.43 -358.85,-143.54l-175.25 250.36c118.51,106.82 280.4,176.92 517.41,176.92zm1139.95 0c343.82,0 609.21,-233.67 609.21,-575.82 0,-342.15 -265.38,-575.82 -609.21,-575.82 -343.82,0 -609.21,233.67 -609.21,575.82 0,342.15 265.38,575.82 609.21,575.82zm0 -297.08c-161.9,0 -267.04,-123.51 -267.04,-278.74 0,-155.22 105.15,-278.74 267.04,-278.74 161.9,0 267.04,123.51 267.04,278.74 0,155.22 -105.15,278.74 -267.04,278.74zm1296.85 277.06l0 -442.3 413.92 -670.95 -378.87 0 -203.63 375.54 -206.97 -375.54 -378.87 0 417.26 670.95 0 442.3 337.14 0z"/>
  <path class="fil4" d="M7259.47 11883.58l159.36 0c87.08,0 149.29,7.68 186.24,23.24 37.14,15.55 66.78,41.53 89.29,77.57 22.5,36.04 33.85,78.68 33.85,128.07 0,51.77 -12.44,95.13 -37.14,129.9 -24.88,34.95 -62.21,61.29 -112.15,79.03l186.07 350.36 -163.93 0 -177.11 -333.71 -15.18 0 0 333.71 -149.3 0 0 -788.17zm149.3 308.46l47.57 0c48.3,0 81.41,-6.22 99.71,-18.85 18.11,-12.62 27.26,-33.48 27.26,-62.75 0,-17.2 -4.58,-32.21 -13.54,-45.01 -8.96,-12.81 -21.05,-21.95 -36.22,-27.44 -15,-5.68 -42.81,-8.42 -83.24,-8.42l-41.53 0 0 162.47zm950.88 -308.46l430.31 0 0 147.1 -281.01 0 0 141.61 281.01 0 0 144.9 -281.01 0 0 207.47 281.01 0 0 147.1 -430.31 0 0 -788.17zm1455.84 107.22l-111.24 98.06c-38.96,-54.15 -78.67,-81.23 -119.1,-81.23 -19.77,0 -35.86,5.31 -48.31,15.74 -12.62,10.61 -18.84,22.5 -18.84,35.68 0,13.17 4.39,25.79 13.35,37.5 12.26,15.74 49.04,49.4 110.32,101.18 57.26,47.93 92.03,78.12 104.29,90.56 30.37,30.74 51.95,60.01 64.76,88 12.62,28.18 19.03,58.73 19.03,91.85 0,64.76 -22.32,118.01 -67.14,160.27 -44.65,42.08 -103.01,63.12 -175.09,63.12 -56.17,0 -105.02,-13.72 -146.73,-41.16 -41.72,-27.63 -77.58,-70.8 -107.22,-129.72l126.42 -76.11c38.05,69.52 81.78,104.29 131.18,104.29 25.79,0 47.57,-7.5 65.13,-22.5 17.56,-15 26.34,-32.39 26.34,-51.96 0,-17.74 -6.59,-35.68 -19.95,-53.6 -13.17,-17.75 -42.44,-45.19 -87.63,-81.96 -85.99,-69.89 -141.42,-123.85 -166.49,-161.92 -25.06,-38.05 -37.68,-75.92 -37.68,-113.79 0,-54.7 20.86,-101.54 62.39,-140.51 41.71,-39.15 93.13,-58.73 154.23,-58.73 39.33,0 76.84,9.15 112.33,27.26 35.68,18.3 74.1,51.41 115.63,99.71zm1000.83 -126.97c111.41,0 207.29,40.43 287.42,121.12 80.31,80.68 120.38,179.12 120.38,295.1 0,115.08 -39.51,212.41 -118.74,292 -79.03,79.58 -175.09,119.47 -287.97,119.47 -118.37,0 -216.62,-40.98 -294.73,-122.75 -78.31,-81.78 -117.46,-178.94 -117.46,-291.45 0,-75.2 18.3,-144.54 54.7,-207.84 36.41,-63.13 86.54,-113.25 150.21,-150.21 63.86,-36.96 132.65,-55.44 206.2,-55.44zm-2.2 147.1c-72.64,0 -133.74,25.43 -183.14,76.11 -49.58,50.67 -74.28,115.08 -74.28,193.39 0,87.09 31.11,156.06 93.49,206.74 48.48,39.7 103.92,59.46 166.66,59.46 70.81,0 131.18,-25.79 180.94,-77.21 49.95,-51.4 74.83,-114.71 74.83,-190.09 0,-75.01 -25.06,-138.49 -75.38,-190.46 -50.13,-51.95 -111.23,-77.94 -183.13,-77.94zm1034.68 -127.34l159.36 0c87.08,0 149.29,7.68 186.24,23.24 37.14,15.55 66.78,41.53 89.29,77.57 22.5,36.04 33.85,78.68 33.85,128.07 0,51.77 -12.44,95.13 -37.14,129.9 -24.88,34.95 -62.21,61.29 -112.15,79.03l186.07 350.36 -163.93 0 -177.11 -333.71 -15.18 0 0 333.71 -149.3 0 0 -788.17zm149.3 308.46l47.57 0c48.3,0 81.41,-6.22 99.71,-18.85 18.11,-12.62 27.26,-33.48 27.26,-62.75 0,-17.2 -4.58,-32.21 -13.54,-45.01 -8.96,-12.81 -21.05,-21.95 -36.22,-27.44 -15,-5.68 -42.81,-8.42 -83.24,-8.42l-41.53 0 0 162.47zm872.94 -308.46l435.8 0 0 148.2 -143.8 0 0 639.97 -152.58 0 0 -639.97 -139.41 0 0 -148.2z"/>
  <g id="_2776965707056">
   <polygon class="fil5" points="14253.31,12124.59 17240.09,12124.59 17240.09,12297.38 14253.31,12297.38 "/>
   <polygon class="fil5" points="3319.81,12124.59 6306.59,12124.59 6306.59,12297.38 3319.81,12297.38 "/>
  </g>
  <path class="fil6" d="M6658 18715.37c-137.9,-32.13 -586.68,-332.48 -792.63,-380.45 -175.74,117.68 -226.84,211.52 -388.37,372.54l-584.89 556.47c-48.72,43.56 -50.67,56.23 -92.11,98.13 -33.11,33.49 -63.33,56.78 -99.55,90.68l-1894.46 1878.4c-40.65,49.03 -23.35,11.93 -47.68,79.13l1045.48 -254.41 1371.75 -1228.02c116.71,-102.77 220.58,-220.09 333.15,-332.66 98.41,-98.41 221.09,-272.92 356.67,-309.12 20.56,246.93 299.64,805.35 317.05,1014.55 152.46,-40.71 271.67,-281.58 422.03,-465.72 605.63,-741.65 1386.55,-1824.31 1965.51,-2504.85 136.07,-159.95 720.97,-929.79 814.64,-992.52 0,408.26 -380.45,2383.61 -380.45,2726.61 215.14,-144.07 778.14,-651.32 951.15,-697.51l710.2 1128.66c130.18,195.24 233.39,366.06 361.43,558.01 86.82,130.15 282.9,463.11 386.77,532.66 177.2,-118.66 323.85,-310.56 475.58,-412.15 209.89,56.04 2091.56,1724.41 2282.74,1775.45l153 -132.69 -318.46 -336.04c56.41,-80.73 91.14,-101.68 152.07,-178.75l425.54 -525.6c-70.44,-105.2 -170.69,-161.26 -285.34,-221.93 93.47,-139.6 311.67,-348.12 348.75,-507.28 -106.11,-158.46 -480.95,-498.39 -642.16,-657.73l-1084.18 -1166.85c-4.22,-5.05 -10.21,-12.24 -14.44,-17.27l-659.36 -672.25c-78.73,-95.04 -62.01,-109.87 -167.93,-180.8l-595.09 578.01c-123.3,-92.32 -394.74,-501.45 -510.19,-645.79l-1494.5 -1961.32 -1753.25 2114.73c-69.36,81.88 -107.01,118.36 -176.3,204.17 -59.28,73.4 -123.78,151.35 -187.61,224.55l-704.56 848.96z"/>
  <path class="fil7" d="M-0 22868.69c166.64,-38.83 323.47,-102.4 475.58,-158.52 2009.61,-741.53 4753.41,-794.33 6845.58,-377.84 365.38,72.74 705.94,162.14 1067.23,264.39 1132.8,320.56 1852.45,615.52 3138.71,856.07 1414.36,264.51 3845.19,381.78 5214.62,-43.5 86.84,-26.98 65.69,-13.32 125.19,-65.04 -4158.33,0 -7085.1,-2155.91 -10462.55,-2155.91 -1262.79,0 -1989.04,19.44 -3221.38,329.54 -132.62,33.37 -226.75,53.93 -354.95,88.91 -711.83,194.17 -1655.4,524.51 -2275.66,894.81 -142.28,84.94 -480.21,259.35 -552.35,367.09z"/>
  <path class="fil7" d="M2980.25 18810.48c0,412 124.23,746.89 295.62,1067.68 62.75,117.44 119.65,181.67 179.93,295.63 229.95,-61.41 551.23,-495.6 753.23,-673.49l1592.92 -1545.84c248.91,131.7 501.5,259.68 729.21,412.15 112.7,-168.29 623.99,-699.49 665.8,-856.02 -365.2,-545.36 -1161.45,-982.84 -1933.98,-982.84 -787.61,0 -1421.52,397.67 -1866.73,986.7 -236.73,313.21 -416.01,846.16 -416.01,1296.04z"/>
  <path class="fil6" d="M16803.49 22596.54c110.3,40.47 164.51,25.56 285.34,0.78 101.99,-266.37 0,-682.18 0,-965.13 170.69,3.82 429.36,111.83 792.38,127.06 694.19,29.15 503.48,106.04 163.02,-321.53 -136.3,-171.16 -634.45,-726.51 -701.75,-978.6 136.31,31.75 320.05,91.65 475.57,95.11 -29.23,-125.48 -200.15,-291.32 -355,-532.73 -77.97,-121.54 -299.82,-445.11 -310.79,-576.94 66.71,32.01 276.25,63.41 380.45,63.41l-203.22 -335.76c-112.86,-170.33 -509.09,-951.35 -525.99,-1154.36 -112.58,82.48 -296.05,653.45 -411.68,888.2 -70.32,142.76 -134.7,271.55 -211.37,422.74 -69.86,137.76 -202.15,300.53 -232.97,432.83 120.02,-27.97 325.64,-85.28 443.86,-95.12 -69.25,297.27 -233,377.19 -160.99,537.69 68.38,152.44 275.97,282.06 319.52,445.15 -129.93,10.81 -172.59,31.71 -348.75,31.71 12.69,152.54 218.2,411.11 316.41,539.61 47.63,62.34 121.23,120.12 152.28,165.17 75.69,109.81 -24.83,912.2 -24.83,1102.38 79.23,53.05 56.37,60.12 158.52,108.31z"/>
  <path class="fil6" d="M15231.52 22615.05c167.48,69.21 339.26,20.01 379.34,0 7.16,-143.81 19.57,-342.1 19.57,-538.98 133.85,31.19 294.75,44.56 442.45,64.82 164.61,22.59 256.14,62 445.28,62 -226.2,-337.79 -309.98,-359.86 -538.98,-792.62 166.13,38.7 313.35,122.49 507.29,126.82l-357.7 -530.04c-82.12,-108.8 -103.11,-149.12 -171.49,-272.37 -55.09,-99.28 -140.91,-204.62 -168.31,-307.26 89.58,42.98 258.75,84.98 380.45,95.11 -31.67,-59.83 -54.34,-130.15 -89.98,-195.35 -245.99,-450.18 -558.83,-1035.52 -670.94,-1516.7 -81.87,59.99 -333.97,758.17 -375.89,860.6 -65.73,160.67 -127.71,273.53 -205.37,428.72 -69.16,138.24 -135.38,309.27 -211.35,422.74 159.76,-13.29 153.24,-63.41 348.75,-63.41 -73.1,313.76 -594.04,832.82 -634.1,982.84 213.14,-4.76 315.73,-89.59 475.57,-126.82 -63.56,238.03 -487.28,701.91 -602.38,919.44 166.63,0 319.98,-49.94 492.61,-78.08 117.7,-19.19 452.14,-48.75 553.64,-48.75 0,165.46 8.17,396.14 -18.45,507.28z"/>
  <path class="fil7" d="M17088.83 22597.32c-120.84,24.78 -175.04,39.69 -285.34,-0.78 -152.05,56.32 -1041.3,111.58 -1192.64,18.51 -40.07,20.01 -211.85,69.21 -379.34,0 -969.47,0 -2101.84,-193.49 -3053.98,-383.39 -65.38,-13.04 -131.7,-22.81 -210.6,-43.03 -95.4,-24.44 -103.44,-40.73 -204.49,-49.15l994.22 369.08c374.8,111.28 712.22,203.04 1098.64,296.37 2213.41,534.59 4504.24,633.74 6394.39,-865.3 146.11,-115.87 142.55,-84.82 168.13,-180.61 -95.84,22.32 -257.72,102.36 -359.34,147.93 -492.64,220.91 -1512.64,511.19 -2048.28,583.21 -206.94,27.82 -788.01,124.14 -921.38,107.16z"/>
  <path class="fil7" d="M3867.97 22361.4l42.25 21.16c61.05,23.85 -18.67,-1.48 45.39,18.03 51.05,15.55 38.18,12.93 106.47,20.35l670.21 90.71c281.09,54.46 583.69,101.73 848.13,166.42 1400.19,342.64 2704.62,840.37 4151.99,920.76 310.17,17.23 608.69,62.48 952.08,62.48l-1420.18 -355.28c-450.62,-122.8 -934.35,-261.97 -1373.58,-401.88 -1337.1,-425.9 -2567,-695.05 -4022.75,-542.73z"/>
  <path class="fil7" d="M4438.66 16432.63c165.34,-13.76 275.86,-73.54 465.45,-105.24 141.68,-23.68 388.03,-21.58 580.8,-21.58l-281.33 -796.61c-45.81,-127.43 -221.23,-715.48 -321.06,-788.62l-443.86 1712.06z"/>
  <path class="fil7" d="M3297.29 17161.84c93.43,-24.95 41.07,-13.02 96.01,-62.52 187.87,-169.23 507.29,-472.39 760.01,-539.87 -41.86,-57.14 -225.13,-180.01 -304.31,-234.67l-651.66 -458.01c-62.2,-46.16 -97.5,-71.05 -166.01,-119.33 -91.56,-64.51 -79.39,-81.13 -177.92,-107.44 3.33,149.13 365.77,1359.06 443.87,1521.83z"/>
  <path class="fil7" d="M1204.78 19571.4l823.33 64.41c184.98,5.09 717.12,10.49 825.31,62.41 -11.62,-139.72 -78.99,-288.17 -109.31,-461.36 -29.68,-169.47 -49.2,-341.49 -49.2,-521.49 -145.97,34.01 -259.67,124.79 -380.46,190.24 -146.56,79.38 -1053.26,588.81 -1109.67,665.8z"/>
  <path class="fil7" d="M1458.42 17447.18c68.91,102.91 482.45,343.73 633.76,444.2l666.14 411.82c7.46,-335.16 313.75,-737.53 348.75,-887.73 -274.77,0 -549.55,0.03 -824.33,0 -319.49,-0.03 -531.28,31.71 -824.32,31.71z"/>
  <path class="fil7" d="M5960.49 16369.21l792.61 317.05c0,-450.87 63.42,-801.53 63.42,-1236.48 -61.18,44.82 -136.91,157.39 -213.69,230.17l-222.08 221.8c-150.6,157.28 -317.9,274.01 -420.26,467.46z"/>
  <path class="fil8" d="M5186.84 26214.75c292.09,0 440.63,-176.92 505.72,-325.46l-290.41 -133.53c-28.38,86.8 -115.17,161.91 -215.31,161.91 -161.9,0 -270.38,-123.51 -270.38,-278.74 0,-155.22 108.48,-278.74 270.38,-278.74 100.14,0 186.93,75.11 215.31,161.91l290.41 -135.2c-66.75,-153.55 -213.63,-323.79 -505.72,-323.79 -348.83,0 -612.54,232 -612.54,575.82 0,342.15 263.72,575.82 612.54,575.82zm1684.08 -20.03l0 -1113.25 -337.15 0 0 393.9 -398.9 0 0 -393.9 -337.14 0 0 1113.25 337.14 0 0 -425.6 398.9 0 0 425.6 337.15 0zm517.4 0l0 -1113.25 -337.14 0 0 1113.25 337.14 0zm1502.15 0l0 -1113.25 -465.67 0 -195.28 534.1 -195.27 -534.1 -465.67 0 0 1113.25 337.14 0 0 -669.28 248.7 669.28 150.21 0 248.7 -669.28 0 669.28 337.14 0zm732.71 20.03c218.65,0 385.55,-88.46 509.05,-225.32l0 -455.64 -542.43 0 0 293.75 206.96 0 0 40.06c-35.05,26.7 -110.15,50.08 -173.58,50.08 -161.9,0 -270.38,-123.51 -270.38,-278.74 0,-155.22 108.48,-278.74 270.38,-278.74 100.14,0 173.58,70.1 205.3,138.53l283.73 -145.21c-70.1,-143.53 -223.65,-290.41 -489.03,-290.41 -337.14,0 -612.54,218.65 -612.54,575.82 0,355.5 275.4,575.82 612.54,575.82zm1767.52 -20.03l-410.58 -1113.25 -423.93 0 -410.58 1113.25 382.2 0 40.06 -130.19 400.57 0 40.05 130.19 382.21 0zm-512.39 -423.93l-220.32 0 110.15 -358.85 110.16 358.85zm1644.01 423.93l0 -1113.25 -337.15 0 0 527.42 -387.21 -527.42 -347.17 0 0 1113.25 337.14 0 0 -564.14 410.59 564.14 323.79 0zm612.54 20.03c298.75,0 480.68,-141.87 480.68,-387.22 0,-413.92 -619.22,-323.79 -619.22,-428.94 0,-28.37 18.36,-50.08 85.12,-50.08 105.15,0 230.33,36.72 327.13,110.16l180.25 -238.67c-126.84,-103.49 -290.41,-155.22 -472.34,-155.22 -305.44,0 -462.32,180.25 -462.32,368.85 0,438.96 620.88,330.48 620.88,437.3 0,43.39 -60.08,60.09 -123.5,60.09 -150.22,0 -275.4,-63.43 -358.85,-143.54l-175.25 250.36c118.51,106.82 280.4,176.92 517.41,176.92zm1139.95 0c343.82,0 609.21,-233.67 609.21,-575.82 0,-342.15 -265.38,-575.82 -609.21,-575.82 -343.82,0 -609.21,233.67 -609.21,575.82 0,342.15 265.38,575.82 609.21,575.82zm0 -297.08c-161.9,0 -267.04,-123.51 -267.04,-278.74 0,-155.22 105.15,-278.74 267.04,-278.74 161.9,0 267.04,123.51 267.04,278.74 0,155.22 -105.15,278.74 -267.04,278.74zm1296.85 277.06l0 -442.3 413.92 -670.95 -378.87 0 -203.63 375.54 -206.97 -375.54 -378.87 0 417.26 670.95 0 442.3 337.14 0z"/>
  <path class="fil8" d="M7259.47 26604.16l159.36 0c87.08,0 149.29,7.68 186.24,23.24 37.14,15.55 66.78,41.53 89.29,77.57 22.5,36.04 33.85,78.68 33.85,128.07 0,51.77 -12.44,95.13 -37.14,129.9 -24.88,34.95 -62.21,61.29 -112.15,79.03l186.07 350.36 -163.93 0 -177.11 -333.71 -15.18 0 0 333.71 -149.3 0 0 -788.17zm149.3 308.46l47.57 0c48.3,0 81.41,-6.22 99.71,-18.85 18.11,-12.62 27.26,-33.48 27.26,-62.75 0,-17.2 -4.58,-32.21 -13.54,-45.01 -8.96,-12.81 -21.05,-21.95 -36.22,-27.44 -15,-5.68 -42.81,-8.42 -83.24,-8.42l-41.53 0 0 162.47zm950.88 -308.46l430.31 0 0 147.1 -281.01 0 0 141.61 281.01 0 0 144.9 -281.01 0 0 207.47 281.01 0 0 147.1 -430.31 0 0 -788.17zm1455.84 107.22l-111.24 98.06c-38.96,-54.15 -78.67,-81.23 -119.1,-81.23 -19.77,0 -35.86,5.31 -48.31,15.74 -12.62,10.61 -18.84,22.5 -18.84,35.68 0,13.17 4.39,25.79 13.35,37.5 12.26,15.74 49.04,49.4 110.32,101.18 57.26,47.93 92.03,78.12 104.29,90.56 30.37,30.74 51.95,60.01 64.76,88 12.62,28.18 19.03,58.73 19.03,91.85 0,64.76 -22.32,118.01 -67.14,160.27 -44.65,42.08 -103.01,63.12 -175.09,63.12 -56.17,0 -105.02,-13.72 -146.73,-41.16 -41.72,-27.63 -77.58,-70.8 -107.22,-129.72l126.42 -76.11c38.05,69.52 81.78,104.29 131.18,104.29 25.79,0 47.57,-7.5 65.13,-22.5 17.56,-15 26.34,-32.39 26.34,-51.96 0,-17.74 -6.59,-35.68 -19.95,-53.6 -13.17,-17.75 -42.44,-45.19 -87.63,-81.96 -85.99,-69.89 -141.42,-123.85 -166.49,-161.92 -25.06,-38.05 -37.68,-75.92 -37.68,-113.79 0,-54.7 20.86,-101.54 62.39,-140.51 41.71,-39.15 93.13,-58.73 154.23,-58.73 39.33,0 76.84,9.15 112.33,27.26 35.68,18.3 74.1,51.41 115.63,99.71zm1000.83 -126.97c111.41,0 207.29,40.43 287.42,121.12 80.31,80.68 120.38,179.12 120.38,295.1 0,115.08 -39.51,212.41 -118.74,292 -79.03,79.58 -175.09,119.47 -287.97,119.47 -118.37,0 -216.62,-40.98 -294.73,-122.75 -78.31,-81.78 -117.46,-178.94 -117.46,-291.45 0,-75.2 18.3,-144.54 54.7,-207.84 36.41,-63.13 86.54,-113.25 150.21,-150.21 63.86,-36.96 132.65,-55.44 206.2,-55.44zm-2.2 147.1c-72.64,0 -133.74,25.43 -183.14,76.11 -49.58,50.67 -74.28,115.08 -74.28,193.39 0,87.09 31.11,156.06 93.49,206.74 48.48,39.7 103.92,59.46 166.66,59.46 70.81,0 131.18,-25.79 180.94,-77.21 49.95,-51.4 74.83,-114.71 74.83,-190.09 0,-75.01 -25.06,-138.49 -75.38,-190.46 -50.13,-51.95 -111.23,-77.94 -183.13,-77.94zm1034.68 -127.34l159.36 0c87.08,0 149.29,7.68 186.24,23.24 37.14,15.55 66.78,41.53 89.29,77.57 22.5,36.04 33.85,78.68 33.85,128.07 0,51.77 -12.44,95.13 -37.14,129.9 -24.88,34.95 -62.21,61.29 -112.15,79.03l186.07 350.36 -163.93 0 -177.11 -333.71 -15.18 0 0 333.71 -149.3 0 0 -788.17zm149.3 308.46l47.57 0c48.3,0 81.41,-6.22 99.71,-18.85 18.11,-12.62 27.26,-33.48 27.26,-62.75 0,-17.2 -4.58,-32.21 -13.54,-45.01 -8.96,-12.81 -21.05,-21.95 -36.22,-27.44 -15,-5.68 -42.81,-8.42 -83.24,-8.42l-41.53 0 0 162.47zm872.94 -308.46l435.8 0 0 148.2 -143.8 0 0 639.97 -152.58 0 0 -639.97 -139.41 0 0 -148.2z"/>
  <g id="_2776965712576">
   <polygon class="fil6" points="14253.31,26845.17 17240.09,26845.17 17240.09,27017.96 14253.31,27017.96 "/>
   <polygon class="fil6" points="3319.81,26845.17 6306.59,26845.17 6306.59,27017.96 3319.81,27017.96 "/>
  </g>
 </g>
</svg>
